# xmcd
#
# Track frame offsets: 
#        150
#        13803
#        28433
#        40898
#        55101
#        68842
#        80713
#        94341
#        105117
#        118838
#        134043
#        146921
#        160038
#        172324
#        186153
#        198596
#        211426
#        226149
#        236757
#        249944
#        263467
#        276158
#        289545
#        304260
#        319248
#
# Disc length: 4411 seconds
#
# Revision: 0
# Processed by: cddbd v1.5.2PL0 Copyright (c) Steve Scherf et al.
# Submitted via: ExactAudioCopyFreeDBPlugin 1.0
#
DISCID=79113919
DTITLE=Tampa Red - Dynamite! The Unsung King Of The Blues [CD1]
DYEAR=2015
DGENRE=Blues
TTITLE0=Evalena
TTITLE1=Big Stars Falling Blues
TTITLE2=Rambler's Blues
TTITLE3=If I Don't Find Another True Love
TTITLE4=So Crazy About You Baby
TTITLE5=If She Don't Come Back
TTITLE6=So Much Trouble
TTITLE7=I'll Never Let You Go
TTITLE8=Too Late Too Long
TTITLE9=Got A Mind To Leave This Town
TTITLE10=I'm Gonna Put You Down
TTITLE11=But I Forgive You
TTITLE12=Look A There Look A There
TTITLE13=She's A Cool Operator
TTITLE14=I Won't Let Her Do It
TTITLE15=Green And Lucky Blues
TTITLE16=Early In The Morning
TTITLE17=She's Dynamite
TTITLE18=Pretty Baby Blues
TTITLE19=Sweet Little Angel
TTITLE20=Midnight Boogie
TTITLE21=I Miss My Lovin' Blues
TTITLE22=1950 Blues
TTITLE23=Love Her With A Feelin'
TTITLE24=It's Good Like That
EXTD=
EXTT0=
EXTT1=
EXTT2=
EXTT3=
EXTT4=
EXTT5=
EXTT6=
EXTT7=
EXTT8=
EXTT9=
EXTT10=
EXTT11=
EXTT12=
EXTT13=
EXTT14=
EXTT15=
EXTT16=
EXTT17=
EXTT18=
EXTT19=
EXTT20=
EXTT21=
EXTT22=
EXTT23=
EXTT24=
PLAYORDER=
